<?xml version="1.0" encoding="UTF-8" standalone="no"?><!DOCTYPE svg PUBLIC "-//W3C//DTD SVG 1.1//EN" "http://www.w3.org/Graphics/SVG/1.1/DTD/svg11.dtd"><svg width="100%" height="100%" viewBox="0 0 1928 2134" version="1.1" xmlns="http://www.w3.org/2000/svg" xmlns:xlink="http://www.w3.org/1999/xlink" xml:space="preserve" xmlns:serif="http://www.serif.com/" style="fill-rule:evenodd;clip-rule:evenodd;stroke-linejoin:round;stroke-miterlimit:2;"><g><path d="M1321.78,1949.27c-0,79.355 -64.564,143.924 -143.93,143.924l-993.789,-0c-79.354,-0 -143.912,-64.558 -143.912,-143.924l-0,-95.103l1281.63,-0l-0,95.103Zm-1281.64,-1765.18c0,-79.371 64.558,-143.946 143.935,-143.946l993.772,0c79.372,0 143.941,64.575 143.941,143.946l0,95.104l-1281.65,-0l0,-95.104Zm1301.73,1257.23c-11.083,-0 -20.067,8.983 -20.067,20.072l0,273.14c0,0.068 -0.022,0.118 -0.022,0.191l-0,79.321l-1281.63,-0l-0,-817.998c-0,-0.012 -0.006,-0.028 -0.006,-0.045l0,-676.657l1281.66,0l0,123.689c0,11.084 8.984,20.073 20.067,20.073c11.084,-0 20.073,-8.989 20.073,-20.073l-0,-258.943c-0,-101.499 -82.575,-184.085 -184.08,-184.085l-993.784,0c-101.499,0 -184.074,82.581 -184.074,184.085l-0,811.978c-0,0.011 0.006,0.028 0.006,0.045l-0,953.162c-0,101.5 82.563,184.063 184.051,184.063l993.789,0c101.5,0 184.069,-82.563 184.069,-184.063l0,-214.39c0,-0.078 0.023,-0.129 0.023,-0.201l-0,-273.303c-0,-11.078 -8.989,-20.061 -20.073,-20.061Z" style="fill:#233e52;fill-rule:nonzero;"/><path d="M829.283,145.441l-296.646,0c-11.083,0 -20.072,8.984 -20.072,20.067c-0,11.084 8.989,20.073 20.072,20.073l296.646,-0c11.084,-0 20.067,-8.989 20.067,-20.073c0,-11.083 -8.983,-20.067 -20.067,-20.067Z" style="fill:#233e52;fill-rule:nonzero;"/><path d="M340.325,145.441l-79.982,0c-11.084,0 -20.073,8.984 -20.073,20.067c0,11.084 8.989,20.073 20.073,20.073l79.982,-0c11.083,-0 20.072,-8.989 20.072,-20.073c0,-11.083 -8.989,-20.067 -20.072,-20.067Z" style="fill:#233e52;fill-rule:nonzero;"/><path d="M829.283,1947.77l-296.646,0c-11.083,0 -20.072,8.989 -20.072,20.073c-0,11.083 8.989,20.067 20.072,20.067l296.646,-0c11.084,-0 20.067,-8.984 20.067,-20.067c0,-11.084 -8.983,-20.073 -20.067,-20.073Z" style="fill:#233e52;fill-rule:nonzero;"/></g><path d="M1887.47,1267.01c-0,57.383 -46.692,104.053 -104.064,104.053l-787.531,-0c-0.656,-0 -1.266,0.129 -1.899,0.19c-0.666,0.068 -1.339,0.079 -1.988,0.202c-0.823,0.157 -1.608,0.448 -2.403,0.717c-0.454,0.134 -0.913,0.241 -1.355,0.42c-0.902,0.358 -1.708,0.84 -2.52,1.322c-0.32,0.184 -0.65,0.319 -0.941,0.515c-1.137,0.756 -2.196,1.624 -3.148,2.599l-254.294,254.283l-0,-240.159c-0,-11.083 -8.984,-20.072 -20.067,-20.072l-87.24,-0c-57.373,-0 -104.048,-46.681 -104.048,-104.053l0,-629.617c0,-57.379 46.681,-104.065 104.048,-104.065l1163.37,0c25.388,0 49.907,9.375 69.022,26.368c22.268,19.854 35.037,48.176 35.037,77.697l0.017,629.6Zm-8.351,-737.272c-26.49,-23.556 -60.486,-36.532 -95.713,-36.532l-1163.37,-0c-79.512,-0 -144.187,64.698 -144.187,144.204l-0,629.6c-0,79.511 64.686,144.192 144.187,144.192l67.167,0l0,268.542c0,1.317 0.129,2.627 0.398,3.938c0.101,0.56 0.319,1.092 0.487,1.635c0.202,0.711 0.37,1.417 0.65,2.106c0.269,0.655 0.638,1.226 0.974,1.837c0.286,0.543 0.516,1.103 0.868,1.607c0.728,1.092 1.557,2.112 2.476,3.036c0.011,0.005 0.017,0.017 0.022,0.022c0.93,0.935 1.96,1.764 3.053,2.498c0.509,0.33 1.041,0.554 1.573,0.851c0.628,0.331 1.232,0.723 1.888,0.992c0.672,0.28 1.366,0.448 2.066,0.644c0.555,0.156 1.098,0.369 1.68,0.504c1.3,0.252 2.61,0.392 3.932,0.392c1.322,-0 2.632,-0.14 3.926,-0.392c0.588,-0.124 1.143,-0.342 1.714,-0.51c0.683,-0.196 1.366,-0.358 2.022,-0.638c0.689,-0.28 1.282,-0.667 1.921,-1.003c0.521,-0.286 1.041,-0.515 1.545,-0.84c1.098,-0.734 2.129,-1.568 3.064,-2.498l282.734,-282.74l779.209,0c79.517,0 144.203,-64.686 144.203,-144.186l0,-629.589c0,-40.963 -17.67,-80.201 -48.49,-107.672Z" style="fill:#589ed2;fill-rule:nonzero;"/><path d="M1316.31,1233.21l-54.208,-0.006l-0,-553.578l54.208,0c152.621,0 276.786,124.165 276.786,276.786c-0,152.627 -124.165,276.798 -276.786,276.798Zm-0,-593.723l-74.275,-0c-11.089,-0 -20.073,8.983 -20.073,20.067l0,593.728c0,11.084 8.984,20.067 20.073,20.067l74.275,0c174.76,0 316.925,-142.176 316.925,-316.937c0,-174.754 -142.165,-316.925 -316.925,-316.925Z" style="fill:#589ed2;fill-rule:nonzero;"/><path d="M1143.83,796.044l-0,201.654l-249.708,0l0,-201.654c0,-68.837 56.006,-124.843 124.865,-124.843c68.826,0 124.82,55.978 124.848,124.804c0,0.016 -0.005,0.028 -0.005,0.039Zm40.139,0.05c0,-0.011 0.006,-0.028 0.006,-0.05c-0,-90.97 -74.018,-164.982 -164.988,-164.982c-90.981,-0 -165.01,74.012 -165.01,164.982l0,457.237c0,11.083 8.989,20.067 20.073,20.067c11.083,-0 20.072,-8.984 20.072,-20.067l0,-215.443l249.708,-0l-0,215.443c-0,11.083 8.983,20.067 20.066,20.067c11.084,-0 20.073,-8.984 20.073,-20.067l0,-235.404c0,-0.033 0.011,-0.067 0.011,-0.106c0,-0.034 -0.011,-0.067 -0.011,-0.101l0,-221.576Z" style="fill:#589ed2;fill-rule:nonzero;"/></svg>