<?xml version="1.0" encoding="UTF-8" standalone="no"?><!DOCTYPE svg PUBLIC "-//W3C//DTD SVG 1.1//EN" "http://www.w3.org/Graphics/SVG/1.1/DTD/svg11.dtd"><svg width="100%" height="100%" viewBox="0 0 242 209" version="1.1" xmlns="http://www.w3.org/2000/svg" xmlns:xlink="http://www.w3.org/1999/xlink" xml:space="preserve" xmlns:serif="http://www.serif.com/" style="fill-rule:evenodd;clip-rule:evenodd;stroke-linejoin:round;stroke-miterlimit:2;"><g><path d="M0,204.167c0,2.5 2.083,4.166 4.167,4.166l233.333,0c2.5,0 4.167,-2.083 4.167,-4.583l-0,-203.75l-241.667,0l0,204.167Zm120.833,-20.834l-91.666,0c-2.084,0 -4.167,-2.083 -4.167,-4.166c0,-2.084 2.083,-4.167 4.167,-4.167l91.666,0c2.084,0 4.167,2.083 4.167,4.167c0,2.083 -2.083,4.166 -4.167,4.166Zm0,-25l-91.666,0c-2.084,0 -4.167,-2.083 -4.167,-4.166c0,-2.084 2.083,-4.167 4.167,-4.167l91.666,0c2.084,0 4.167,2.083 4.167,4.167c0,2.083 -2.083,4.166 -4.167,4.166Zm0,-25l-91.666,0c-2.084,0 -4.167,-2.083 -4.167,-4.166c0,-2.084 2.083,-4.167 4.167,-4.167l91.666,0c2.084,0 4.167,2.083 4.167,4.167c0,2.083 -2.083,4.166 -4.167,4.166Zm100,58.334l4.167,-0l0,-4.167c0,-2.083 2.083,-4.167 4.167,-4.167c2.083,0 4.166,2.084 4.166,4.167l0,8.333c0,2.084 -2.083,4.167 -4.166,4.167l-8.334,0c-2.083,0 -4.166,-2.083 -4.166,-4.167c-0,-2.083 2.083,-4.166 4.166,-4.166Zm-83.333,-166.667l75,0c2.083,0 4.167,2.083 4.167,4.167c-0,2.083 -2.084,4.166 -4.167,4.166l-75,0c-2.083,0 -4.167,-2.083 -4.167,-4.166c0,-2.084 2.084,-4.167 4.167,-4.167Zm0,25l75,0c2.083,0 4.167,2.083 4.167,4.167c-0,2.083 -2.084,4.166 -4.167,4.166l-75,0c-2.083,0 -4.167,-2.083 -4.167,-4.166c0,-2.084 2.084,-4.167 4.167,-4.167Zm0,25l75,0c2.083,0 4.167,2.083 4.167,4.167c-0,2.083 -2.084,4.166 -4.167,4.166l-75,0c-2.083,0 -4.167,-2.083 -4.167,-4.166c0,-2.084 2.084,-4.167 4.167,-4.167Zm0,25l75,0c2.083,0 4.167,2.083 4.167,4.167c-0,2.083 -2.084,4.166 -4.167,4.166l-75,0c-2.083,0 -4.167,-2.083 -4.167,-4.166c0,-2.084 2.084,-4.167 4.167,-4.167Zm0,25l75,0c2.083,0 4.167,2.083 4.167,4.167c-0,2.083 -2.084,4.166 -4.167,4.166l-75,0c-2.083,0 -4.167,-2.083 -4.167,-4.166c0,-2.084 2.084,-4.167 4.167,-4.167Zm0,25l75,0c2.083,0 4.167,2.083 4.167,4.167c-0,2.083 -2.084,4.166 -4.167,4.166l-75,0c-2.083,0 -4.167,-2.083 -4.167,-4.166c0,-2.084 2.084,-4.167 4.167,-4.167Zm0,25l75,0c2.083,0 4.167,2.083 4.167,4.167c-0,2.083 -2.084,4.166 -4.167,4.166l-75,0c-2.083,0 -4.167,-2.083 -4.167,-4.166c0,-2.084 2.084,-4.167 4.167,-4.167Zm-100.417,-150l75.834,0c6.666,0 12.083,5.417 12.083,12.083l0,67.5c0,6.667 -5.417,12.084 -12.083,12.084l-75.834,-0c-6.666,-0 -12.083,-5.417 -12.083,-12.084l0,-67.5c0,-6.666 5.417,-12.083 12.083,-12.083Zm-28.75,-12.5c0,-2.083 2.084,-4.167 4.167,-4.167l8.333,0c2.084,0 4.167,2.084 4.167,4.167c0,2.083 -2.083,4.167 -4.167,4.167l-4.166,-0l-0,4.166c-0,2.084 -2.084,4.167 -4.167,4.167c-2.083,0 -4.167,-2.083 -4.167,-4.167l0,-8.333Zm0,25c0,-2.083 2.084,-4.167 4.167,-4.167c2.083,0 4.167,2.084 4.167,4.167l-0,8.333c-0,2.084 -2.084,4.167 -4.167,4.167c-2.083,0 -4.167,-2.083 -4.167,-4.167l0,-8.333Z" style="fill-rule:nonzero;"/><clipPath id="_clip1"><path d="M0,204.167c0,2.5 2.083,4.166 4.167,4.166l233.333,0c2.5,0 4.167,-2.083 4.167,-4.583l-0,-203.75l-241.667,0l0,204.167Zm120.833,-20.834l-91.666,0c-2.084,0 -4.167,-2.083 -4.167,-4.166c0,-2.084 2.083,-4.167 4.167,-4.167l91.666,0c2.084,0 4.167,2.083 4.167,4.167c0,2.083 -2.083,4.166 -4.167,4.166Zm0,-25l-91.666,0c-2.084,0 -4.167,-2.083 -4.167,-4.166c0,-2.084 2.083,-4.167 4.167,-4.167l91.666,0c2.084,0 4.167,2.083 4.167,4.167c0,2.083 -2.083,4.166 -4.167,4.166Zm0,-25l-91.666,0c-2.084,0 -4.167,-2.083 -4.167,-4.166c0,-2.084 2.083,-4.167 4.167,-4.167l91.666,0c2.084,0 4.167,2.083 4.167,4.167c0,2.083 -2.083,4.166 -4.167,4.166Zm100,58.334l4.167,-0l0,-4.167c0,-2.083 2.083,-4.167 4.167,-4.167c2.083,0 4.166,2.084 4.166,4.167l0,8.333c0,2.084 -2.083,4.167 -4.166,4.167l-8.334,0c-2.083,0 -4.166,-2.083 -4.166,-4.167c-0,-2.083 2.083,-4.166 4.166,-4.166Zm-83.333,-166.667l75,0c2.083,0 4.167,2.083 4.167,4.167c-0,2.083 -2.084,4.166 -4.167,4.166l-75,0c-2.083,0 -4.167,-2.083 -4.167,-4.166c0,-2.084 2.084,-4.167 4.167,-4.167Zm0,25l75,0c2.083,0 4.167,2.083 4.167,4.167c-0,2.083 -2.084,4.166 -4.167,4.166l-75,0c-2.083,0 -4.167,-2.083 -4.167,-4.166c0,-2.084 2.084,-4.167 4.167,-4.167Zm0,25l75,0c2.083,0 4.167,2.083 4.167,4.167c-0,2.083 -2.084,4.166 -4.167,4.166l-75,0c-2.083,0 -4.167,-2.083 -4.167,-4.166c0,-2.084 2.084,-4.167 4.167,-4.167Zm0,25l75,0c2.083,0 4.167,2.083 4.167,4.167c-0,2.083 -2.084,4.166 -4.167,4.166l-75,0c-2.083,0 -4.167,-2.083 -4.167,-4.166c0,-2.084 2.084,-4.167 4.167,-4.167Zm0,25l75,0c2.083,0 4.167,2.083 4.167,4.167c-0,2.083 -2.084,4.166 -4.167,4.166l-75,0c-2.083,0 -4.167,-2.083 -4.167,-4.166c0,-2.084 2.084,-4.167 4.167,-4.167Zm0,25l75,0c2.083,0 4.167,2.083 4.167,4.167c-0,2.083 -2.084,4.166 -4.167,4.166l-75,0c-2.083,0 -4.167,-2.083 -4.167,-4.166c0,-2.084 2.084,-4.167 4.167,-4.167Zm0,25l75,0c2.083,0 4.167,2.083 4.167,4.167c-0,2.083 -2.084,4.166 -4.167,4.166l-75,0c-2.083,0 -4.167,-2.083 -4.167,-4.166c0,-2.084 2.084,-4.167 4.167,-4.167Zm-100.417,-150l75.834,0c6.666,0 12.083,5.417 12.083,12.083l0,67.5c0,6.667 -5.417,12.084 -12.083,12.084l-75.834,-0c-6.666,-0 -12.083,-5.417 -12.083,-12.084l0,-67.5c0,-6.666 5.417,-12.083 12.083,-12.083Zm-28.75,-12.5c0,-2.083 2.084,-4.167 4.167,-4.167l8.333,0c2.084,0 4.167,2.084 4.167,4.167c0,2.083 -2.083,4.167 -4.167,4.167l-4.166,-0l-0,4.166c-0,2.084 -2.084,4.167 -4.167,4.167c-2.083,0 -4.167,-2.083 -4.167,-4.167l0,-8.333Zm0,25c0,-2.083 2.084,-4.167 4.167,-4.167c2.083,0 4.167,2.084 4.167,4.167l-0,8.333c-0,2.084 -2.084,4.167 -4.167,4.167c-2.083,0 -4.167,-2.083 -4.167,-4.167l0,-8.333Z" clip-rule="nonzero"/></clipPath><g clip-path="url(#_clip1)"><rect x="-0" y="0" width="241.667" height="208.333" style="fill:url(#_Linear2);"/></g><path d="M37.083,108.333l75.834,0c2.083,0 3.75,-1.666 3.75,-3.75l-0,-67.5c-0,-2.083 -1.667,-3.75 -3.75,-3.75l-75.834,0c-2.083,0 -3.75,1.667 -3.75,3.75l0,67.5c0,2.084 1.667,3.75 3.75,3.75Z" style="fill:#72ccd0;fill-rule:nonzero;"/></g><defs><linearGradient id="_Linear2" x1="0" y1="0" x2="1" y2="0" gradientUnits="userSpaceOnUse" gradientTransform="matrix(241.667,0,0,208.333,-1.42109e-14,104.167)"><stop offset="0" style="stop-color:#6abd45;stop-opacity:1"/><stop offset="0.5" style="stop-color:#70c383;stop-opacity:1"/><stop offset="1" style="stop-color:#72ccd2;stop-opacity:1"/></linearGradient></defs></svg>