<?xml version="1.0" encoding="UTF-8" standalone="no"?><!DOCTYPE svg PUBLIC "-//W3C//DTD SVG 1.1//EN" "http://www.w3.org/Graphics/SVG/1.1/DTD/svg11.dtd"><svg width="100%" height="100%" viewBox="0 0 1418 1824" version="1.1" xmlns="http://www.w3.org/2000/svg" xmlns:xlink="http://www.w3.org/1999/xlink" xml:space="preserve" xmlns:serif="http://www.serif.com/" style="fill-rule:evenodd;clip-rule:evenodd;stroke-linejoin:round;stroke-miterlimit:2;"><g><path d="M1417.79,1689.58c-0.209,-13.333 -0.584,-26.625 -1.167,-39.875c-0.292,-6.625 -0.621,-13.25 -1,-19.833c-9.958,-171.621 -52.083,-334.167 -123.5,-475.833c-5.5,-10.913 -11.167,-21.663 -17,-32.334c-56.917,-103.791 -128.912,-191.041 -210.208,-256.208c-1.542,-1.208 -3.125,-2.417 -4.667,-3.667c-0.496,-0.375 -0.954,-0.75 -1.458,-1.125c-36.625,-28.708 -75.125,-52.916 -114.917,-72.208c55.792,-43.5 99.25,-102.167 124.167,-169.708c19.958,24.958 50.587,40.958 84.916,40.958c59.921,0 108.667,-48.75 108.667,-108.667c0,-48.583 -32,-89.791 -76.042,-103.708c-13.875,-249.042 -220.833,-447.375 -473.291,-447.375c-1.125,0 -2.209,0 -3.334,0.042c-1.083,-0.042 -2.208,-0.042 -3.333,-0.042c-252.417,0 -459.417,198.333 -473.25,447.375c-44.042,13.917 -76.083,55.125 -76.083,103.708c-0,59.917 48.75,108.667 108.708,108.667c34.292,0 64.958,-16 84.875,-40.958c24.917,67.541 68.375,126.208 124.167,169.708c-30.75,14.917 -60.75,32.75 -89.709,53.375c-94.083,66.958 -177.375,162.875 -241.541,279.833c-93.417,170.334 -142.792,373.671 -142.792,587.959l-0,20.833l639.167,-0l69.791,93.083l69.75,-93.083l639.209,0l-0,-20.833c-0,-6.709 -0.046,-13.375 -0.125,-20.084Zm-471.75,-853.333c1.87,1.042 3.745,2.083 5.625,3.125c2.333,1.25 4.666,2.542 6.958,3.833c1.917,1.084 3.833,2.209 5.75,3.334c2.25,1.333 4.5,2.625 6.75,3.958c1.917,1.167 3.792,2.333 5.708,3.542c2.209,1.333 4.417,2.708 6.625,4.083c0.834,0.542 1.667,1.083 2.504,1.625l-75.045,150.292l-111.542,-151.5c37.167,-9.042 72.25,-23.542 104.292,-42.584c1.25,0.542 2.5,1.042 3.745,1.584c1.463,0.625 2.875,1.291 4.334,1.958c2.875,1.292 5.791,2.583 8.666,3.917c1.667,0.791 3.292,1.625 4.959,2.416c2.666,1.25 5.291,2.5 7.912,3.834c1.834,0.916 3.584,1.875 5.417,2.791c2.421,1.25 4.879,2.5 7.342,3.792Zm-129.334,116.125l-60.796,112.208l-93.916,0l-60.792,-112.208l63.083,-85.667c14.667,1.709 29.542,2.625 44.667,2.625c15.125,0 30,-0.916 44.667,-2.625l63.087,85.667Zm-490.333,-465.625c-0,22.208 1.917,43.958 5.583,65.125c-0.458,36.583 -30.291,66.208 -67,66.208c-36.916,0 -67,-30.083 -67,-67c0,-36.958 30.084,-67.041 67,-67.041c11.542,-0 20.834,-9.334 20.834,-20.834c-0,-5.25 -2,-9.958 -5.167,-13.625c12.667,-226 199.625,-406.166 428.333,-407.875c228.709,1.709 415.709,181.875 428.334,407.875c-3.167,3.667 -5.167,8.375 -5.167,13.625c-0,11.5 9.292,20.834 20.833,20.834c36.917,-0 67,30.083 67,67.041c0,36.917 -30.083,67 -67,67c-36.708,0 -66.541,-29.625 -66.996,-66.208c3.667,-21.167 5.584,-42.917 5.584,-65.125c-0,-138.417 -73.917,-259.917 -184.334,-327.083c-57.875,-35.209 -125.708,-55.5 -198.25,-55.5c-36.25,-0 -71.333,5.083 -104.583,14.541c-33.292,9.459 -64.708,23.375 -93.625,40.959c-2.625,1.583 -5.25,3.208 -7.833,4.875c-106.088,68.083 -176.546,187.083 -176.546,322.208Zm57.042,101.292c-10,-32 -15.375,-66.042 -15.375,-101.292c-0,-35.25 5.375,-69.25 15.375,-101.25c43.208,-138.708 172.833,-239.667 325.541,-239.667c141,0 262.25,86.042 314.084,208.375c2.17,5.084 4.166,10.25 6.125,15.459c3.791,10.416 7.125,21.125 9.962,32c6.458,25 9.996,51.166 10.583,78.041c-61.25,76 -173.625,190.334 -230.166,190.334c-11.5,-0 -20.834,9.333 -20.834,20.833c0,11.5 9.334,20.833 20.834,20.833c69.375,0 167.621,-97.416 224.208,-160.791c-1.375,7.041 -2.833,14.041 -4.621,20.958c-2.791,10.875 -6.129,21.542 -9.962,32c-1.917,5.208 -3.954,10.375 -6.125,15.458c-51.829,122.334 -173.084,208.334 -314.084,208.334c-152.712,-0 -282.337,-100.959 -325.545,-239.625Zm51.041,270.083c2.209,-1.417 4.459,-2.75 6.667,-4.125c1.875,-1.167 3.75,-2.333 5.667,-3.5c2.291,-1.375 4.625,-2.708 6.916,-4.042c1.834,-1.083 3.709,-2.166 5.584,-3.25c2.333,-1.333 4.708,-2.625 7.125,-3.916c1.791,-1 3.625,-2.042 5.458,-3.042c2.5,-1.292 5,-2.583 7.5,-3.875c1.75,-0.917 3.5,-1.833 5.25,-2.708c2.625,-1.334 5.333,-2.584 8,-3.875c1.625,-0.792 3.25,-1.625 4.875,-2.375c2.958,-1.375 5.917,-2.709 8.917,-4.042c1.333,-0.625 2.708,-1.25 4.083,-1.833c1.25,-0.542 2.5,-1.042 3.75,-1.584c32.042,19.042 67.125,33.542 104.333,42.584l-111.583,151.5l-75.042,-150.292c0.834,-0.542 1.667,-1.083 2.5,-1.625Zm-392.625,830.708c0.084,-4.916 0.209,-9.833 0.334,-14.708c0.041,-1.125 0.041,-2.208 0.083,-3.333c0.167,-5.667 0.417,-11.334 0.625,-17c0.042,-0.709 0.083,-1.375 0.083,-2.084c1.167,-25.5 3.042,-50.791 5.667,-75.791c0.083,-0.788 0.167,-1.584 0.25,-2.371c0.583,-5.417 1.208,-10.838 1.833,-16.213c0.209,-1.791 0.459,-3.541 0.667,-5.291c0.542,-4.421 1.083,-8.792 1.667,-13.167c0.333,-2.25 0.666,-4.458 0.958,-6.708c0.542,-3.875 1.083,-7.788 1.667,-11.709c0.375,-2.458 0.791,-4.916 1.166,-7.416c0.542,-3.625 1.125,-7.204 1.709,-10.834c0.416,-2.666 0.916,-5.295 1.375,-7.958c0.583,-3.417 1.125,-6.792 1.75,-10.167c0.5,-2.791 1.041,-5.583 1.541,-8.375c0.625,-3.208 1.209,-6.458 1.834,-9.662c0.333,-1.629 0.666,-3.213 1,-4.833c0.208,-1.25 0.5,-2.505 0.75,-3.75c0.625,-3.084 1.208,-6.209 1.875,-9.288c0.625,-2.958 1.291,-5.917 1.916,-8.833c0.667,-3.004 1.292,-5.963 1.959,-8.921c0.708,-3 1.416,-5.996 2.083,-8.954c0.708,-2.917 1.375,-5.796 2.042,-8.709c0.75,-3.004 1.5,-5.962 2.25,-8.958c0.708,-2.833 1.416,-5.708 2.125,-8.542c0.791,-3 1.583,-6 2.416,-9c0.709,-2.791 1.459,-5.583 2.209,-8.333c0.833,-3.042 1.708,-6.042 2.541,-9.042c0.75,-2.708 1.542,-5.462 2.334,-8.166c0.875,-3 1.75,-6.042 2.666,-9.042c0.792,-2.671 1.584,-5.333 2.417,-8c0.917,-3.042 1.875,-6.042 2.833,-9.042c0.834,-2.629 1.625,-5.254 2.5,-7.879c0.959,-3 1.959,-5.996 2.959,-9c0.875,-2.579 1.708,-5.162 2.583,-7.708c1.042,-3 2.083,-6 3.125,-8.959c0.875,-2.537 1.75,-5.083 2.667,-7.624c1.083,-3.001 2.166,-5.959 3.25,-8.917c0.916,-2.5 1.833,-5 2.75,-7.5c1.125,-2.958 2.25,-5.875 3.375,-8.792c0.958,-2.5 1.916,-4.954 2.875,-7.412c1.166,-2.959 2.333,-5.875 3.5,-8.792c1,-2.417 1.958,-4.833 2.958,-7.25c1.208,-2.917 2.417,-5.792 3.625,-8.708c1.042,-2.375 2.042,-4.75 3.083,-7.167c1.209,-2.875 2.459,-5.708 3.75,-8.588c1.042,-2.37 2.084,-4.708 3.125,-7.083l3.875,-8.496c1.084,-2.337 2.167,-4.666 3.25,-6.962c1.292,-2.833 2.667,-5.625 4,-8.417c1.084,-2.292 2.209,-4.583 3.334,-6.875c1.333,-2.792 2.708,-5.541 4.083,-8.287c1.125,-2.25 2.292,-4.546 3.417,-6.796c1.416,-2.704 2.833,-5.458 4.25,-8.167c1.166,-2.25 2.333,-4.454 3.5,-6.704c1.458,-2.671 2.875,-5.375 4.333,-8.046c1.208,-2.204 2.417,-4.416 3.625,-6.625c1.458,-2.625 2.958,-5.291 4.458,-7.912c1.209,-2.171 2.459,-4.334 3.709,-6.504c1.5,-2.625 3,-5.209 4.541,-7.792c1.25,-2.167 2.542,-4.288 3.792,-6.417c1.542,-2.579 3.083,-5.121 4.667,-7.666c1.291,-2.125 2.583,-4.25 3.916,-6.334c1.542,-2.541 3.125,-5.041 4.709,-7.5c1.333,-2.129 2.666,-4.212 4.041,-6.296c1.584,-2.458 3.209,-4.916 4.792,-7.333c1.375,-2.083 2.75,-4.125 4.167,-6.162c1.625,-2.417 3.25,-4.834 4.875,-7.209c1.416,-2.041 2.833,-4.079 4.25,-6.083c1.625,-2.375 3.291,-4.708 5,-7.083c1.416,-1.996 2.875,-3.959 4.291,-5.959c1.709,-2.337 3.375,-4.625 5.084,-6.916c1.5,-1.959 2.958,-3.913 4.458,-5.875c1.708,-2.25 3.417,-4.5 5.125,-6.75c1.5,-1.959 3.042,-3.875 4.542,-5.792c1.75,-2.208 3.5,-4.417 5.25,-6.583c1.541,-1.917 3.083,-3.792 4.625,-5.667c1.75,-2.167 3.541,-4.333 5.333,-6.458c1.542,-1.875 3.125,-3.709 4.708,-5.584c1.792,-2.083 3.584,-4.166 5.417,-6.25c1.583,-1.829 3.208,-3.666 4.833,-5.5c1.834,-2.037 3.625,-4.079 5.459,-6.083c1.625,-1.792 3.291,-3.579 4.958,-5.375c1.833,-1.996 3.667,-3.954 5.5,-5.917c0.458,-0.454 0.917,-0.916 1.333,-1.416c1.25,-1.292 2.5,-2.584 3.75,-3.875c1.834,-1.917 3.667,-3.834 5.542,-5.709c1.75,-1.75 3.458,-3.5 5.208,-5.208c1.875,-1.875 3.709,-3.708 5.584,-5.542c1.791,-1.708 3.541,-3.416 5.333,-5.083c1.875,-1.796 3.75,-3.583 5.667,-5.375c1.791,-1.667 3.625,-3.333 5.416,-5c1.917,-1.708 3.792,-3.417 5.667,-5.125c1.875,-1.663 3.75,-3.288 5.625,-4.917c1.875,-1.625 3.75,-3.291 5.667,-4.954c1.916,-1.587 3.833,-3.171 5.75,-4.792c1.875,-1.583 3.791,-3.166 5.708,-4.75c1.958,-1.583 3.917,-3.125 5.833,-4.666c1.917,-1.542 3.834,-3.042 5.75,-4.542c2,-1.583 4,-3.083 6,-4.583c1.584,-1.209 3.167,-2.417 4.792,-3.625l102.75,205.912l73.792,-100.166l53.541,98.837c-13.291,55.917 -83.833,376.542 -7.875,600.542l-577.75,-0l0,-0.009Zm708.209,10.459l-41.084,54.833l-41.083,-54.833c-81.958,-201.167 -18.333,-519.125 -1.75,-593.042l85.667,0c16.583,73.879 80.291,391.708 -1.75,593.042Zm48.291,-10.459c75.954,-224 5.417,-544.625 -7.879,-600.541l53.546,-98.838l73.792,100.167l102.75,-205.913c1.625,1.209 3.208,2.417 4.787,3.625c2,1.5 4,3 6,4.542c1.917,1.5 3.833,3.042 5.75,4.583c1.958,1.542 3.917,3.084 5.833,4.667c1.917,1.583 3.834,3.167 5.705,4.75c1.92,1.625 3.837,3.208 5.754,4.792c1.871,1.625 3.787,3.291 5.662,4.954c1.875,1.629 3.75,3.25 5.629,4.917c1.871,1.666 3.746,3.416 5.625,5.125c1.834,1.666 3.667,3.333 5.5,5.041c1.875,1.75 3.709,3.5 5.584,5.296c1.791,1.704 3.583,3.413 5.375,5.121c1.875,1.833 3.708,3.625 5.541,5.458c1.75,1.754 3.5,3.546 5.292,5.296c1.833,1.875 3.625,3.75 5.463,5.625c1.708,1.796 3.458,3.583 5.162,5.421c1.833,1.917 3.625,3.875 5.421,5.792c1.704,1.829 3.375,3.666 5.042,5.5c1.791,1.958 3.579,4 5.375,5.995c1.625,1.834 3.291,3.713 4.916,5.542c1.792,2.083 3.542,4.125 5.334,6.208c1.583,1.875 3.208,3.746 4.787,5.663c1.75,2.083 3.5,4.212 5.254,6.337c1.584,1.917 3.167,3.834 4.709,5.792c1.75,2.129 3.458,4.292 5.162,6.463c1.542,1.995 3.083,3.912 4.588,5.916c1.708,2.204 3.412,4.417 5.083,6.625c1.542,1.996 3.042,4 4.542,5.996c1.666,2.25 3.333,4.542 4.958,6.792c1.496,2.041 2.958,4.083 4.454,6.129c0.088,0.167 0.254,0.333 0.379,0.542c1.496,2.125 3,4.25 4.542,6.375c1.417,2.083 2.833,4.12 4.292,6.204c1.625,2.375 3.208,4.708 4.829,7.083c1.421,2.083 2.791,4.208 4.212,6.292l4.75,7.25c1.334,2.125 2.709,4.254 4.079,6.375l4.625,7.375c1.375,2.171 2.709,4.291 4,6.462c1.542,2.5 3.084,5.042 4.588,7.542c1.292,2.208 2.579,4.375 3.875,6.542c1.5,2.537 3,5.12 4.458,7.666c1.292,2.209 2.538,4.454 3.788,6.667c1.5,2.583 2.958,5.208 4.379,7.792c1.25,2.25 2.458,4.5 3.708,6.708c1.417,2.667 2.834,5.292 4.25,7.958c1.209,2.25 2.375,4.542 3.584,6.792c1.416,2.704 2.791,5.417 4.166,8.121c1.167,2.25 2.338,4.546 3.459,6.837c1.375,2.704 2.75,5.459 4.083,8.209c1.125,2.337 2.246,4.666 3.375,7c1.333,2.75 2.667,5.5 3.958,8.291c1.084,2.338 2.204,4.709 3.292,7.084c1.292,2.791 2.537,5.583 3.833,8.375c1.042,2.375 2.125,4.791 3.167,7.17c1.25,2.834 2.5,5.705 3.75,8.542c0.996,2.417 2.037,4.788 3.037,7.204c1.209,2.875 2.417,5.75 3.625,8.667c1,2.417 2,4.875 2.959,7.292c1.166,2.916 2.337,5.833 3.5,8.754c0.958,2.458 1.916,4.916 2.875,7.412c1.125,2.917 2.25,5.834 3.375,8.792c0.921,2.5 1.833,5.042 2.791,7.542c1.088,2.958 2.171,5.916 3.213,8.875c0.917,2.541 1.792,5.087 2.704,7.67c1.042,2.959 2.083,5.917 3.083,8.875c0.875,2.584 1.709,5.209 2.584,7.792c1,3 2,5.958 2.958,8.954c0.875,2.625 1.667,5.296 2.542,7.917c0.916,3 1.875,5.996 2.791,9c0.834,2.667 1.625,5.329 2.417,8c0.917,3.037 1.792,6.042 2.667,9.042c0.791,2.704 1.541,5.416 2.337,8.125c0.829,3.037 1.704,6.037 2.538,9.083c0.75,2.792 1.5,5.583 2.208,8.333c0.833,3 1.625,6 2.417,9c0.708,2.834 1.416,5.709 2.125,8.542c0.75,3 1.5,6 2.25,9c0.666,2.871 1.333,5.75 2.041,8.625c0.667,3 1.375,5.996 2.084,8.996c0.666,2.958 1.291,5.916 1.958,8.875c0.625,2.962 1.292,5.921 1.917,8.879c0.625,3.079 1.25,6.204 1.875,9.287c0.583,2.875 1.166,5.709 1.75,8.588c0.625,3.208 1.208,6.458 1.833,9.662c0.496,2.792 1.042,5.584 1.538,8.375c0.625,3.338 1.166,6.709 1.75,10.088c0.458,2.667 0.958,5.375 1.375,8.079c0.587,3.583 1.129,7.167 1.708,10.792c0.375,2.504 0.792,4.958 1.167,7.416c0.583,3.875 1.125,7.792 1.666,11.667c0.288,2.25 0.621,4.5 0.954,6.75c0.584,4.292 1.084,8.625 1.625,12.958c0.255,1.83 0.5,3.667 0.713,5.496c0.662,5.5 1.25,11.004 1.829,16.5c0.088,0.713 0.167,1.375 0.254,2.084c2.625,25 4.496,50.291 5.663,75.791c-0,0.709 0.041,1.417 0.087,2.125c0.25,5.629 0.454,11.292 0.621,16.959c0.042,1.125 0.042,2.25 0.088,3.333c0.12,4.917 0.25,9.796 0.333,14.708l-577.742,0l0,0.004Z" style="fill:#174b4d;fill-rule:nonzero;"/><g><path d="M1219.95,551.083c0,36.917 -30.083,67 -67,67c-36.708,0 -66.542,-29.625 -66.996,-66.208c3.667,-21.167 5.584,-42.917 5.584,-65.125c-0,-138.417 -73.917,-259.917 -184.334,-327.083c-57.875,-35.209 -125.708,-55.5 -198.25,-55.5c-36.25,-0 -71.333,5.083 -104.583,14.541c-33.292,9.459 -64.708,23.375 -93.625,40.959c-2.625,1.583 -5.25,3.208 -7.833,4.875c-106.084,68.083 -176.542,187.083 -176.542,322.208c-0,22.208 1.917,43.958 5.583,65.125c-0.458,36.583 -30.291,66.208 -67,66.208c-36.916,0 -67,-30.083 -67,-67c0,-36.958 30.084,-67.041 67,-67.041c11.542,-0 20.834,-9.334 20.834,-20.834c-0,-5.25 -2,-9.958 -5.167,-13.625c12.667,-226 199.625,-406.166 428.333,-407.875c228.709,1.709 415.709,181.875 428.334,407.875c-3.167,3.667 -5.167,8.375 -5.167,13.625c0,11.5 9.292,20.834 20.833,20.834c36.917,-0 66.996,30.083 66.996,67.041Z" style="fill:url(#_Linear1);fill-rule:nonzero;"/><path d="M619.583,1688.83l-577.75,0c0.084,-4.916 0.209,-9.833 0.334,-14.708c0.041,-1.125 0.041,-2.208 0.083,-3.333c0.167,-5.667 0.417,-11.334 0.625,-17c0.042,-0.709 0.083,-1.375 0.083,-2.084c1.167,-25.5 3.042,-50.791 5.667,-75.791c0.083,-0.788 0.167,-1.584 0.25,-2.371c0.583,-5.417 1.208,-10.838 1.833,-16.213c0.209,-1.791 0.459,-3.541 0.667,-5.291c0.542,-4.421 1.083,-8.792 1.667,-13.167c0.333,-2.25 0.666,-4.458 0.958,-6.708c0.542,-3.875 1.083,-7.788 1.667,-11.709c0.375,-2.458 0.791,-4.916 1.166,-7.416c0.542,-3.625 1.125,-7.204 1.709,-10.834c0.416,-2.666 0.916,-5.295 1.375,-7.958c0.583,-3.417 1.125,-6.792 1.75,-10.167c0.5,-2.791 1.041,-5.583 1.541,-8.375c0.625,-3.208 1.209,-6.458 1.834,-9.662c0.333,-1.629 0.666,-3.213 1,-4.833c0.208,-1.251 0.5,-2.505 0.75,-3.75c0.625,-3.084 1.208,-6.209 1.875,-9.288c0.625,-2.958 1.291,-5.917 1.916,-8.833c0.667,-3.004 1.292,-5.963 1.959,-8.921c0.708,-3 1.416,-5.996 2.083,-8.954c0.708,-2.917 1.375,-5.796 2.042,-8.709c0.75,-3.004 1.5,-5.962 2.25,-8.958c0.708,-2.833 1.416,-5.708 2.125,-8.542c0.791,-3 1.583,-6 2.416,-9c0.709,-2.791 1.459,-5.583 2.209,-8.333c0.833,-3.042 1.708,-6.042 2.541,-9.042c0.75,-2.708 1.542,-5.462 2.334,-8.166c0.875,-3 1.75,-6.042 2.666,-9.042c0.792,-2.671 1.584,-5.333 2.417,-8c0.917,-3.042 1.875,-6.042 2.833,-9.042c0.834,-2.629 1.625,-5.254 2.5,-7.879c0.959,-3 1.959,-5.996 2.959,-9c0.875,-2.579 1.708,-5.162 2.583,-7.708c1.042,-3 2.083,-6 3.125,-8.959c0.875,-2.537 1.75,-5.083 2.667,-7.625c1.083,-3 2.166,-5.958 3.25,-8.916c0.916,-2.5 1.833,-5 2.75,-7.5c1.125,-2.959 2.25,-5.875 3.375,-8.792c0.958,-2.5 1.916,-4.954 2.875,-7.412c1.166,-2.959 2.333,-5.875 3.5,-8.792c1,-2.417 1.958,-4.833 2.958,-7.25c1.208,-2.917 2.417,-5.792 3.625,-8.708c1.042,-2.375 2.042,-4.75 3.083,-7.167c1.209,-2.875 2.459,-5.708 3.75,-8.588c1.042,-2.37 2.084,-4.708 3.125,-7.083l3.875,-8.496c1.084,-2.337 2.167,-4.666 3.25,-6.962c1.292,-2.834 2.667,-5.625 4,-8.417c1.084,-2.292 2.209,-4.583 3.334,-6.875c1.333,-2.792 2.708,-5.542 4.083,-8.287c1.125,-2.25 2.292,-4.546 3.417,-6.796c1.416,-2.704 2.833,-5.458 4.25,-8.167c1.166,-2.25 2.333,-4.454 3.5,-6.704c1.458,-2.671 2.875,-5.375 4.333,-8.046c1.208,-2.204 2.417,-4.416 3.625,-6.625c1.458,-2.625 2.958,-5.291 4.458,-7.912c1.209,-2.171 2.459,-4.334 3.709,-6.504c1.5,-2.625 3,-5.209 4.541,-7.792c1.25,-2.167 2.542,-4.288 3.792,-6.417c1.542,-2.579 3.083,-5.121 4.667,-7.666c1.291,-2.125 2.583,-4.25 3.916,-6.334c1.542,-2.541 3.125,-5.041 4.709,-7.5c1.333,-2.129 2.666,-4.212 4.041,-6.296c1.584,-2.458 3.209,-4.916 4.792,-7.333c1.375,-2.083 2.75,-4.125 4.167,-6.162c1.625,-2.417 3.25,-4.834 4.875,-7.209c1.416,-2.041 2.833,-4.079 4.25,-6.083c1.625,-2.375 3.291,-4.708 5,-7.083c1.416,-1.996 2.875,-3.959 4.291,-5.959c1.709,-2.337 3.375,-4.625 5.084,-6.916c1.5,-1.959 2.958,-3.913 4.458,-5.875c1.708,-2.25 3.417,-4.5 5.125,-6.75c1.5,-1.959 3.042,-3.875 4.542,-5.792c1.75,-2.208 3.5,-4.417 5.25,-6.583c1.541,-1.917 3.083,-3.792 4.625,-5.667c1.75,-2.167 3.541,-4.333 5.333,-6.458c1.542,-1.875 3.125,-3.709 4.708,-5.584c1.792,-2.083 3.584,-4.166 5.417,-6.25c1.583,-1.829 3.208,-3.666 4.833,-5.5c1.834,-2.037 3.625,-4.079 5.459,-6.083c1.625,-1.792 3.291,-3.579 4.958,-5.375c1.833,-1.996 3.667,-3.954 5.5,-5.917c0.458,-0.454 0.917,-0.916 1.333,-1.416c1.25,-1.292 2.5,-2.584 3.75,-3.875c1.834,-1.917 3.667,-3.834 5.542,-5.709c1.75,-1.75 3.458,-3.5 5.208,-5.208c1.875,-1.875 3.709,-3.708 5.584,-5.542c1.791,-1.708 3.541,-3.416 5.333,-5.083c1.875,-1.796 3.75,-3.583 5.667,-5.375c1.791,-1.667 3.625,-3.333 5.416,-5c1.917,-1.708 3.792,-3.417 5.667,-5.125c1.875,-1.663 3.75,-3.288 5.625,-4.917c1.875,-1.625 3.75,-3.291 5.667,-4.954c1.916,-1.587 3.833,-3.171 5.75,-4.792c1.875,-1.583 3.791,-3.166 5.708,-4.75c1.958,-1.583 3.917,-3.125 5.833,-4.666c1.917,-1.542 3.834,-3.042 5.75,-4.542c2,-1.583 4,-3.083 6,-4.583c1.584,-1.209 3.167,-2.417 4.792,-3.625l102.75,205.912l73.792,-100.166l53.541,98.837c-13.291,55.908 -83.833,376.538 -7.875,600.533Z" style="fill:url(#_Linear2);fill-rule:nonzero;"/><path d="M798.333,1688.83c75.954,-224 5.417,-544.625 -7.879,-600.541l53.546,-98.838l73.792,100.167l102.75,-205.913c1.625,1.209 3.208,2.417 4.787,3.625c2,1.5 4,3 6,4.542c1.917,1.5 3.833,3.042 5.75,4.583c1.958,1.542 3.917,3.084 5.833,4.667c1.917,1.583 3.834,3.167 5.705,4.75c1.92,1.625 3.837,3.208 5.754,4.792c1.871,1.625 3.787,3.291 5.662,4.954c1.875,1.629 3.75,3.25 5.629,4.917c1.871,1.666 3.746,3.416 5.625,5.125c1.834,1.666 3.667,3.333 5.5,5.041c1.875,1.75 3.709,3.5 5.584,5.296c1.791,1.704 3.583,3.413 5.375,5.121c1.875,1.833 3.708,3.625 5.541,5.458c1.75,1.754 3.5,3.546 5.292,5.296c1.833,1.875 3.625,3.75 5.463,5.625c1.708,1.796 3.458,3.583 5.162,5.421c1.833,1.917 3.625,3.875 5.421,5.792c1.704,1.829 3.375,3.666 5.042,5.5c1.791,1.958 3.579,4 5.375,5.995c1.625,1.834 3.291,3.713 4.916,5.542c1.792,2.083 3.542,4.125 5.334,6.208c1.583,1.875 3.208,3.746 4.787,5.663c1.75,2.083 3.5,4.212 5.254,6.337c1.584,1.917 3.167,3.834 4.709,5.792c1.75,2.129 3.458,4.292 5.162,6.462c1.542,1.996 3.083,3.913 4.588,5.917c1.708,2.204 3.412,4.417 5.083,6.625c1.542,1.996 3.042,4 4.542,5.996c1.666,2.25 3.333,4.542 4.958,6.792c1.496,2.041 2.958,4.083 4.454,6.129c0.088,0.167 0.254,0.333 0.379,0.542c1.496,2.125 3,4.25 4.542,6.375c1.417,2.083 2.833,4.12 4.292,6.204c1.625,2.375 3.208,4.708 4.829,7.083c1.421,2.083 2.791,4.208 4.212,6.292l4.75,7.25c1.334,2.125 2.709,4.254 4.079,6.375l4.625,7.375c1.375,2.17 2.709,4.291 4,6.462c1.542,2.5 3.084,5.042 4.588,7.542c1.292,2.208 2.579,4.375 3.875,6.541c1.5,2.538 3,5.121 4.458,7.667c1.292,2.208 2.538,4.454 3.788,6.667c1.5,2.583 2.958,5.208 4.379,7.792c1.25,2.25 2.458,4.5 3.708,6.708c1.417,2.667 2.834,5.292 4.25,7.958c1.209,2.25 2.375,4.542 3.584,6.792c1.416,2.704 2.791,5.417 4.166,8.121c1.167,2.25 2.338,4.546 3.459,6.837c1.375,2.704 2.75,5.459 4.083,8.209c1.125,2.337 2.246,4.666 3.375,7c1.333,2.75 2.667,5.5 3.958,8.291c1.084,2.338 2.204,4.709 3.292,7.084c1.292,2.791 2.537,5.583 3.833,8.375c1.042,2.375 2.125,4.791 3.167,7.17c1.25,2.834 2.5,5.705 3.75,8.542c0.996,2.417 2.037,4.788 3.037,7.204c1.209,2.875 2.417,5.75 3.625,8.667c1,2.417 2,4.875 2.959,7.292c1.166,2.916 2.337,5.833 3.5,8.754c0.958,2.458 1.916,4.916 2.875,7.412c1.125,2.917 2.25,5.834 3.375,8.792c0.921,2.5 1.833,5.042 2.791,7.542c1.088,2.958 2.171,5.916 3.213,8.875c0.917,2.541 1.792,5.087 2.704,7.67c1.042,2.959 2.083,5.917 3.083,8.875c0.875,2.584 1.709,5.209 2.584,7.792c1,3 2,5.958 2.958,8.954c0.875,2.625 1.667,5.296 2.542,7.917c0.916,3 1.875,5.996 2.791,9c0.834,2.667 1.625,5.329 2.417,8c0.917,3.037 1.792,6.042 2.667,9.042c0.791,2.704 1.541,5.416 2.337,8.125c0.829,3.037 1.704,6.037 2.538,9.083c0.75,2.792 1.5,5.583 2.208,8.333c0.833,3 1.625,6 2.417,9c0.708,2.834 1.416,5.709 2.125,8.542c0.75,3 1.5,6 2.25,9c0.666,2.871 1.333,5.75 2.041,8.625c0.667,3 1.375,5.996 2.084,8.996c0.666,2.958 1.291,5.916 1.958,8.875c0.625,2.962 1.292,5.921 1.917,8.879c0.625,3.079 1.25,6.204 1.875,9.287c0.583,2.875 1.166,5.709 1.75,8.588c0.625,3.208 1.208,6.458 1.833,9.662c0.496,2.792 1.042,5.584 1.538,8.375c0.625,3.338 1.166,6.709 1.75,10.088c0.458,2.667 0.958,5.375 1.375,8.079c0.587,3.583 1.129,7.167 1.708,10.792c0.375,2.504 0.792,4.958 1.167,7.416c0.583,3.875 1.125,7.792 1.666,11.667c0.288,2.25 0.621,4.5 0.954,6.75c0.584,4.292 1.084,8.625 1.625,12.958c0.255,1.83 0.5,3.667 0.713,5.496c0.662,5.5 1.25,11.004 1.829,16.5c0.088,0.713 0.167,1.375 0.254,2.084c2.625,25 4.496,50.291 5.663,75.791c-0,0.709 0.041,1.417 0.087,2.125c0.25,5.629 0.454,11.292 0.621,16.959c0.042,1.125 0.042,2.25 0.088,3.333c0.12,4.917 0.25,9.796 0.333,14.708l-577.742,0l0,0.004Z" style="fill:url(#_Linear3);fill-rule:nonzero;"/></g><g><path d="M1043.75,550.917c-1.375,7.041 -2.834,14.041 -4.621,20.958c-2.792,10.875 -6.129,21.542 -9.963,32c-1.916,5.208 -3.954,10.375 -6.125,15.458c-51.829,122.334 -173.083,208.334 -314.083,208.334c-152.708,-0 -282.333,-100.959 -325.542,-239.625c-10,-32 -15.375,-66.042 -15.375,-101.292c0,-35.25 5.375,-69.25 15.375,-101.25c43.209,-138.708 172.834,-239.667 325.542,-239.667c141,0 262.25,86.042 314.083,208.375c2.171,5.084 4.167,10.25 6.125,15.459c3.792,10.416 7.125,21.125 9.963,32c6.458,25 9.996,51.166 10.583,78.041c-61.25,76 -173.625,190.334 -230.166,190.334c-11.5,-0 -20.834,9.333 -20.834,20.833c0,11.5 9.334,20.833 20.834,20.833c69.375,0 167.62,-97.416 224.204,-160.791Z" style="fill:#fff;fill-rule:nonzero;"/><path d="M985.958,859.75l-75.046,150.292l-111.541,-151.5c37.167,-9.042 72.25,-23.542 104.292,-42.584c1.25,0.542 2.5,1.042 3.745,1.584c1.463,0.625 2.875,1.291 4.334,1.958c2.875,1.292 5.791,2.583 8.666,3.917c1.667,0.791 3.292,1.625 4.959,2.416c2.666,1.25 5.291,2.5 7.912,3.834c1.834,0.916 3.584,1.875 5.417,2.791c2.417,1.25 4.875,2.5 7.337,3.792c1.871,1.042 3.746,2.083 5.625,3.125c2.334,1.25 4.667,2.542 6.959,3.833c1.916,1.084 3.833,2.209 5.75,3.334c2.25,1.333 4.5,2.625 6.75,3.958c1.916,1.167 3.791,2.333 5.708,3.542c2.208,1.333 4.417,2.708 6.625,4.083c0.842,0.542 1.675,1.083 2.508,1.625Z" style="fill:#fff;fill-rule:nonzero;"/><path d="M618.583,858.542l-111.583,151.5l-75.042,-150.292c0.834,-0.542 1.667,-1.083 2.5,-1.625c2.209,-1.417 4.459,-2.75 6.667,-4.125c1.875,-1.167 3.75,-2.333 5.667,-3.5c2.291,-1.375 4.625,-2.708 6.916,-4.042c1.834,-1.083 3.709,-2.166 5.584,-3.25c2.333,-1.333 4.708,-2.625 7.125,-3.916c1.791,-1 3.625,-2.042 5.458,-3.042c2.5,-1.292 5,-2.583 7.5,-3.875c1.75,-0.917 3.5,-1.833 5.25,-2.708c2.625,-1.334 5.333,-2.584 8,-3.875c1.625,-0.792 3.25,-1.625 4.875,-2.375c2.958,-1.375 5.917,-2.709 8.917,-4.042c1.333,-0.625 2.708,-1.25 4.083,-1.833c1.25,-0.542 2.5,-1.042 3.75,-1.584c32.042,19.042 67.125,33.542 104.333,42.584Z" style="fill:#fff;fill-rule:nonzero;"/><path d="M816.708,952.375l-60.796,112.208l-93.916,0l-60.792,-112.208l63.083,-85.667c14.667,1.709 29.542,2.625 44.667,2.625c15.125,0 30,-0.916 44.667,-2.625l63.087,85.667Z" style="fill:#fff;fill-rule:nonzero;"/><path d="M750.042,1699.29l-41.084,54.833l-41.083,-54.833c-81.958,-201.167 -18.333,-519.125 -1.75,-593.042l85.667,-0c16.583,73.879 80.291,391.708 -1.75,593.042Z" style="fill:#fff;fill-rule:nonzero;"/></g></g><defs><linearGradient id="_Linear1" x1="0" y1="0" x2="1" y2="0" gradientUnits="userSpaceOnUse" gradientTransform="matrix(1334.24,0,0,1647.13,41.8333,865.271)"><stop offset="0" style="stop-color:#6abd46;stop-opacity:1"/><stop offset="0.5" style="stop-color:#70c382;stop-opacity:1"/><stop offset="1" style="stop-color:#72cccf;stop-opacity:1"/></linearGradient><linearGradient id="_Linear2" x1="0" y1="0" x2="1" y2="0" gradientUnits="userSpaceOnUse" gradientTransform="matrix(1334.24,0,0,1647.13,41.8333,865.271)"><stop offset="0" style="stop-color:#6abd46;stop-opacity:1"/><stop offset="0.5" style="stop-color:#70c382;stop-opacity:1"/><stop offset="1" style="stop-color:#72cccf;stop-opacity:1"/></linearGradient><linearGradient id="_Linear3" x1="0" y1="0" x2="1" y2="0" gradientUnits="userSpaceOnUse" gradientTransform="matrix(1334.24,0,0,1647.13,41.8333,865.271)"><stop offset="0" style="stop-color:#6abd46;stop-opacity:1"/><stop offset="0.5" style="stop-color:#70c382;stop-opacity:1"/><stop offset="1" style="stop-color:#72cccf;stop-opacity:1"/></linearGradient></defs></svg>