<?xml version="1.0" encoding="UTF-8" standalone="no"?><!DOCTYPE svg PUBLIC "-//W3C//DTD SVG 1.1//EN" "http://www.w3.org/Graphics/SVG/1.1/DTD/svg11.dtd"><svg width="100%" height="100%" viewBox="0 0 1051 985" version="1.1" xmlns="http://www.w3.org/2000/svg" xmlns:xlink="http://www.w3.org/1999/xlink" xml:space="preserve" xmlns:serif="http://www.serif.com/" style="fill-rule:evenodd;clip-rule:evenodd;stroke-linejoin:round;stroke-miterlimit:2;"><g><path d="M990.104,577.983c0,6.409 -5.2,11.609 -11.608,11.609l-906.483,-0c-6.409,-0 -11.609,-5.2 -11.609,-11.609l0,-508.387c0,-5.071 4.125,-9.192 9.192,-9.192l911.317,0c5.066,0 9.191,4.121 9.191,9.192l0,508.387Zm-320.404,111.409c-20.304,-0 -36.771,-16.467 -36.771,-36.767c0,-20.304 16.467,-36.771 36.771,-36.771c20.3,0 36.767,16.467 36.767,36.771c-0,20.3 -16.467,36.767 -36.767,36.767Zm-144.446,-0c-20.3,-0 -36.767,-16.467 -36.767,-36.767c0,-20.304 16.467,-36.771 36.767,-36.771c20.3,0 36.767,16.467 36.767,36.771c-0,20.3 -16.467,36.767 -36.767,36.767Zm-144.446,-0c-20.3,-0 -36.766,-16.467 -36.766,-36.767c-0,-20.304 16.466,-36.771 36.766,-36.771c20.304,0 36.771,16.467 36.771,36.771c0,20.3 -16.467,36.767 -36.771,36.767Zm600.105,-689.392l-911.317,0c-38.367,0 -69.596,31.225 -69.596,69.596l0,577.775c0,38.371 31.229,69.596 69.596,69.596l325.996,-0c17.916,18.462 33.516,40.55 46.066,65.445c13.896,27.471 24.084,58.305 29.734,91.317c0.495,2.967 0.945,5.963 1.391,8.979l-127.295,0c-1.08,0 -2.05,0.554 -2.575,1.471l-56.359,95.808c-1.183,1.996 0.263,4.492 2.571,4.492l447.571,0c2.308,0 3.754,-2.496 2.571,-4.492l-56.359,-95.808c-0.525,-0.917 -1.495,-1.471 -2.575,-1.471l-127.291,0c0.446,-3.016 0.891,-6.012 1.391,-8.979c5.646,-33.067 15.838,-63.896 29.73,-91.342c12.525,-24.87 28.154,-46.958 46.062,-65.42l350.688,-0c38.366,-0 69.595,-31.225 69.595,-69.596l0,-577.775c0,-38.371 -31.229,-69.596 -69.595,-69.596Z" style="fill:url(#_Linear1);fill-rule:nonzero;"/><g><path d="M634.2,412.438l0,-174.492l21.288,-0c20.791,-0 36.025,6.383 46.574,19.508c10.801,13.446 16.28,33.938 16.28,60.908l-0,14.992c-0.25,25.938 -5.921,45.942 -16.85,59.463c-10.679,13.2 -25.917,19.621 -46.592,19.621l-20.7,-0Z" style="fill:#72ccd2;fill-rule:nonzero;"/><path d="M463.913,474.65l78.658,0l-112.038,-299.308l-64.787,-0l-111.421,299.308l78.654,0l19.513,-58.542l91.712,0l19.709,58.542Zm96.562,0l95.596,0c26.091,-0.133 49.867,-6.25 70.704,-18.175c20.954,-11.992 37.404,-29.1 48.9,-50.85c11.396,-21.567 17.171,-46.458 17.171,-73.992l-0,-13.075c-0,-27.537 -5.879,-52.537 -17.479,-74.308c-11.692,-21.938 -28.204,-39.108 -49.084,-51.029c-20.783,-11.863 -44.604,-17.879 -70.795,-17.879l-95.013,-0l0,299.308Zm-440.542,62.704c-4.02,0 -7.287,-3.271 -7.287,-7.292l-0,-410.133c-0,-4.021 3.267,-7.287 7.287,-7.287l810.642,-0c4.021,-0 7.288,3.266 7.288,7.287l-0,410.133c-0,4.021 -3.267,7.292 -7.288,7.292l-810.642,0Z" style="fill:#72ccd2;fill-rule:nonzero;"/><path d="M373.346,353.504l24.833,-74.787l25.117,74.787l-49.95,0Z" style="fill:#72ccd2;fill-rule:nonzero;"/></g></g><defs><linearGradient id="_Linear1" x1="0" y1="0" x2="1" y2="0" gradientUnits="userSpaceOnUse" gradientTransform="matrix(1050.51,0,0,984.479,0,492.24)"><stop offset="0" style="stop-color:#6abd45;stop-opacity:1"/><stop offset="0.5" style="stop-color:#70c383;stop-opacity:1"/><stop offset="1" style="stop-color:#72ccd2;stop-opacity:1"/></linearGradient></defs></svg>