<?xml version="1.0" encoding="utf-8"?>
<!-- Generator: Adobe Illustrator 17.0.0, SVG Export Plug-In . SVG Version: 6.00 Build 0)  -->
<!DOCTYPE svg PUBLIC "-//W3C//DTD SVG 1.1//EN" "http://www.w3.org/Graphics/SVG/1.1/DTD/svg11.dtd">
<svg version="1.1" id="Calque_1" xmlns="http://www.w3.org/2000/svg" xmlns:xlink="http://www.w3.org/1999/xlink" x="0px" y="0px"
	 width="512px" height="512px" viewBox="0 0 512 512" enable-background="new 0 0 512 512" xml:space="preserve">
<g>
	<linearGradient id="SVGID_1_" gradientUnits="userSpaceOnUse" x1="172.7893" y1="447.1644" x2="313.7893" y2="205.1644">
		<stop  offset="0" style="stop-color:#0DFF00"/>
		<stop  offset="1" style="stop-color:#00FFF2"/>
	</linearGradient>
	<path fill="url(#SVGID_1_)" d="M453.412,382.014V184.277c0-24.733-14.174-47.003-36.38-57.652V58.621c0-2.761-2.238-5-5-5H99.969
		c-2.761,0-5,2.239-5,5v68.001c-22.207,10.651-36.382,32.921-36.382,57.652v197.739c-19.009,1.934-33.891,18.034-33.891,37.544v1.08
		c0,20.81,16.93,37.74,37.74,37.74h387.131c20.809,0,37.737-16.931,37.737-37.74v-1.08
		C487.305,400.047,472.422,383.947,453.412,382.014z M104.969,63.621h302.063V99H104.969V63.621z M104.969,129.881
		c0-0.009,0-0.018,0-0.027V109h302.063v20.846c0,0.015,0,0.031,0,0.046V331.25H104.969V129.881z M68.587,184.275
		c0-19.207,10.143-36.659,26.382-46.324V336.25c0,2.762,2.239,5,5,5h312.063c2.762,0,5-2.238,5-5V137.953
		c16.238,9.664,26.38,27.116,26.38,46.323v197.542H68.587V184.275z M477.305,420.639c0,15.296-12.443,27.74-27.737,27.74H62.436
		c-15.296,0-27.74-12.444-27.74-27.74v-1.08c0-15.296,12.444-27.739,27.74-27.739h387.129c15.296,0,27.739,12.443,27.739,27.739
		V420.639z"/>
	<linearGradient id="SVGID_2_" gradientUnits="userSpaceOnUse" x1="223.1385" y1="476.5001" x2="364.1385" y2="234.5001">
		<stop  offset="0" style="stop-color:#0DFF00"/>
		<stop  offset="1" style="stop-color:#00FFF2"/>
	</linearGradient>
	<path fill="url(#SVGID_2_)" d="M322.135,415.098H189.867c-2.761,0-5,2.238-5,5s2.239,5,5,5h132.268c2.762,0,5-2.238,5-5
		S324.896,415.098,322.135,415.098z"/>
	<linearGradient id="SVGID_3_" gradientUnits="userSpaceOnUse" x1="168.8014" y1="444.8409" x2="309.8014" y2="202.8409">
		<stop  offset="0" style="stop-color:#0DFF00"/>
		<stop  offset="1" style="stop-color:#00FFF2"/>
	</linearGradient>
	<path fill="url(#SVGID_3_)" d="M380.5,66.5c-8.271,0-15,6.729-15,15s6.729,15,15,15s15-6.729,15-15S388.771,66.5,380.5,66.5z
		 M380.5,86.5c-2.757,0-5-2.243-5-5s2.243-5,5-5s5,2.243,5,5S383.257,86.5,380.5,86.5z"/>
	<linearGradient id="SVGID_4_" gradientUnits="userSpaceOnUse" x1="143.1748" y1="429.9097" x2="284.1748" y2="187.9097">
		<stop  offset="0" style="stop-color:#0DFF00"/>
		<stop  offset="1" style="stop-color:#00FFF2"/>
	</linearGradient>
	<path fill="url(#SVGID_4_)" d="M346.174,66.5c-8.271,0-15,6.729-15,15s6.729,15,15,15s15-6.729,15-15S354.445,66.5,346.174,66.5z
		 M346.174,86.5c-2.757,0-5-2.243-5-5s2.243-5,5-5s5,2.243,5,5S348.931,86.5,346.174,86.5z"/>
	<linearGradient id="SVGID_5_" gradientUnits="userSpaceOnUse" x1="117.5467" y1="414.9777" x2="258.5468" y2="172.9776">
		<stop  offset="0" style="stop-color:#0DFF00"/>
		<stop  offset="1" style="stop-color:#00FFF2"/>
	</linearGradient>
	<path fill="url(#SVGID_5_)" d="M311.846,66.5c-8.271,0-15,6.729-15,15s6.729,15,15,15s15-6.729,15-15S320.117,66.5,311.846,66.5z
		 M311.846,86.5c-2.757,0-5-2.243-5-5s2.243-5,5-5s5,2.243,5,5S314.603,86.5,311.846,86.5z"/>
	<linearGradient id="SVGID_6_" gradientUnits="userSpaceOnUse" x1="82.5913" y1="394.6111" x2="223.5913" y2="152.6111">
		<stop  offset="0" style="stop-color:#0DFF00"/>
		<stop  offset="1" style="stop-color:#00FFF2"/>
	</linearGradient>
	<path fill="url(#SVGID_6_)" d="M165.633,251.965H128.79c-2.761,0-5,2.239-5,5v53.476c0,2.762,2.239,5,5,5h36.843
		c2.761,0,5-2.238,5-5v-53.476C170.633,254.204,168.394,251.965,165.633,251.965z M160.633,305.44H133.79v-43.476h26.843V305.44z"/>
	<linearGradient id="SVGID_7_" gradientUnits="userSpaceOnUse" x1="115.3641" y1="413.706" x2="256.3641" y2="171.706">
		<stop  offset="0" style="stop-color:#0DFF00"/>
		<stop  offset="1" style="stop-color:#00FFF2"/>
	</linearGradient>
	<path fill="url(#SVGID_7_)" d="M220.019,215.965h-36.843c-2.761,0-5,2.239-5,5v89.476c0,2.762,2.239,5,5,5h36.843
		c2.761,0,5-2.238,5-5v-89.476C225.019,218.204,222.78,215.965,220.019,215.965z M215.019,305.44h-26.843v-79.476h26.843V305.44z"/>
	<linearGradient id="SVGID_8_" gradientUnits="userSpaceOnUse" x1="149.0071" y1="433.3079" x2="290.0071" y2="191.3079">
		<stop  offset="0" style="stop-color:#0DFF00"/>
		<stop  offset="1" style="stop-color:#00FFF2"/>
	</linearGradient>
	<path fill="url(#SVGID_8_)" d="M274.405,183.965h-36.843c-2.761,0-5,2.239-5,5V310.44c0,2.762,2.239,5,5,5h36.843
		c2.762,0,5-2.238,5-5V188.965C279.405,186.204,277.167,183.965,274.405,183.965z M269.405,305.44h-26.843V193.965h26.843V305.44z"
		/>
	<linearGradient id="SVGID_9_" gradientUnits="userSpaceOnUse" x1="200.2659" y1="463.1735" x2="341.2659" y2="221.1735">
		<stop  offset="0" style="stop-color:#0DFF00"/>
		<stop  offset="1" style="stop-color:#00FFF2"/>
	</linearGradient>
	<path fill="url(#SVGID_9_)" d="M328.79,232.965h-36.843c-2.762,0-5,2.239-5,5v72.476c0,2.762,2.238,5,5,5h36.843
		c2.762,0,5-2.238,5-5v-72.476C333.79,235.204,331.552,232.965,328.79,232.965z M323.79,305.44h-26.843v-62.476h26.843V305.44z"/>
	<linearGradient id="SVGID_10_" gradientUnits="userSpaceOnUse" x1="222.3815" y1="476.0591" x2="363.3815" y2="234.0591">
		<stop  offset="0" style="stop-color:#0DFF00"/>
		<stop  offset="1" style="stop-color:#00FFF2"/>
	</linearGradient>
	<path fill="url(#SVGID_10_)" d="M383.176,147.965h-36.843c-2.762,0-5,2.239-5,5V310.44c0,2.762,2.238,5,5,5h36.843
		c2.762,0,5-2.238,5-5V152.965C388.176,150.204,385.938,147.965,383.176,147.965z M378.176,305.44h-26.843V157.965h26.843V305.44z"
		/>
	<linearGradient id="SVGID_11_" gradientUnits="userSpaceOnUse" x1="32.2034" y1="365.2528" x2="173.2034" y2="123.2528">
		<stop  offset="0" style="stop-color:#0DFF00"/>
		<stop  offset="1" style="stop-color:#00FFF2"/>
	</linearGradient>
	<path fill="url(#SVGID_11_)" d="M128.79,142h72.807c2.761,0,5-2.239,5-5s-2.239-5-5-5H128.79c-2.761,0-5,2.239-5,5
		S126.029,142,128.79,142z"/>
	<linearGradient id="SVGID_12_" gradientUnits="userSpaceOnUse" x1="86.7673" y1="397.0442" x2="227.7673" y2="155.0442">
		<stop  offset="0" style="stop-color:#0DFF00"/>
		<stop  offset="1" style="stop-color:#00FFF2"/>
	</linearGradient>
	<path fill="url(#SVGID_12_)" d="M128.79,164h193.345c2.762,0,5-2.239,5-5s-2.238-5-5-5H128.79c-2.761,0-5,2.239-5,5
		S126.029,164,128.79,164z"/>
</g>
</svg>
