<?xml version="1.0" encoding="UTF-8" standalone="no"?><!DOCTYPE svg PUBLIC "-//W3C//DTD SVG 1.1//EN" "http://www.w3.org/Graphics/SVG/1.1/DTD/svg11.dtd"><svg width="100%" height="100%" viewBox="0 0 1678 2013" version="1.1" xmlns="http://www.w3.org/2000/svg" xmlns:xlink="http://www.w3.org/1999/xlink" xml:space="preserve" xmlns:serif="http://www.serif.com/" style="fill-rule:evenodd;clip-rule:evenodd;stroke-linejoin:round;stroke-miterlimit:2;"><g><path d="M1619.01,1865.1c0,56.713 -46.15,102.85 -102.879,102.85l-66.933,0l-0,-936.991l66.933,-0c56.733,-0 102.879,46.137 102.879,102.85l0,731.291Zm-1334.8,102.85l-66.946,0c-56.725,0 -102.875,-46.158 -102.875,-102.883l0,-731.263c0,-56.733 46.15,-102.883 102.875,-102.883l66.946,0l-0,937.029Zm1231.92,-972.591l-84.629,-0c-0.034,-0 -0.071,-0.009 -0.104,-0.009c-0.03,0 -0.071,0.009 -0.1,0.009l-154.28,-0c-9.837,-0 -17.8,7.971 -17.8,17.8c0,9.829 7.963,17.796 17.8,17.796l136.58,-0l-0,936.995l-1093.8,0l-0,-937.029l101.554,0c9.833,0 17.8,-7.967 17.8,-17.8c-0,-9.825 -7.967,-17.796 -17.8,-17.796l-204.096,0c-76.354,0 -138.475,62.121 -138.475,138.479l0,731.259c0,76.362 62.121,138.483 138.475,138.483l1298.87,0c76.358,0 138.479,-62.108 138.479,-138.45l0,-731.292c0,-76.337 -62.121,-138.445 -138.479,-138.445Z" style="fill:#b4b4b5;fill-rule:nonzero;"/><clipPath id="_clip1"><path d="M1619.01,1865.1c0,56.713 -46.15,102.85 -102.879,102.85l-66.933,0l-0,-936.991l66.933,-0c56.733,-0 102.879,46.137 102.879,102.85l0,731.291Zm-1334.8,102.85l-66.946,0c-56.725,0 -102.875,-46.158 -102.875,-102.883l0,-731.263c0,-56.733 46.15,-102.883 102.875,-102.883l66.946,0l-0,937.029Zm1231.92,-972.591l-84.629,-0c-0.034,-0 -0.071,-0.009 -0.104,-0.009c-0.03,0 -0.071,0.009 -0.1,0.009l-154.28,-0c-9.837,-0 -17.8,7.971 -17.8,17.8c0,9.829 7.963,17.796 17.8,17.796l136.58,-0l-0,936.995l-1093.8,0l-0,-937.029l101.554,0c9.833,0 17.8,-7.967 17.8,-17.8c-0,-9.825 -7.967,-17.796 -17.8,-17.796l-204.096,0c-76.354,0 -138.475,62.121 -138.475,138.479l0,731.259c0,76.362 62.121,138.483 138.475,138.483l1298.87,0c76.358,0 138.479,-62.108 138.479,-138.45l0,-731.292c0,-76.337 -62.121,-138.445 -138.479,-138.445Z" clip-rule="nonzero"/></clipPath><g clip-path="url(#_clip1)"><rect x="78.781" y="995.321" width="1575.83" height="1008.22" style="fill:url(#_Linear2);"/></g><path d="M1619.01,1865.1c0,56.713 -46.15,102.85 -102.879,102.85l-66.933,0l-0,-936.991l66.933,-0c56.733,-0 102.879,46.137 102.879,102.85l0,731.291Zm-1334.8,102.85l-66.946,0c-56.725,0 -102.875,-46.158 -102.875,-102.883l0,-731.263c0,-56.733 46.15,-102.883 102.875,-102.883l66.946,0l-0,937.029Zm1231.92,-972.591l-84.629,-0c-0.034,-0 -0.071,-0.009 -0.104,-0.009c-0.03,0 -0.071,0.009 -0.1,0.009l-154.28,-0c-9.837,-0 -17.8,7.971 -17.8,17.8c0,9.829 7.963,17.796 17.8,17.796l136.58,-0l-0,936.995l-1093.8,0l-0,-937.029l101.554,0c9.833,0 17.8,-7.967 17.8,-17.8c-0,-9.825 -7.967,-17.796 -17.8,-17.796l-204.096,0c-76.354,0 -138.475,62.121 -138.475,138.479l0,731.259c0,76.362 62.121,138.483 138.475,138.483l1298.87,0c76.358,0 138.479,-62.108 138.479,-138.45l0,-731.292c0,-76.337 -62.121,-138.445 -138.479,-138.445Z" style="fill:none;fill-rule:nonzero;stroke:url(#_Linear3);stroke-width:17.08px;"/><g><path d="M203.577,1372.5c-9.829,0 -17.8,7.967 -17.8,17.805l-0,218.279c-0,9.833 7.971,17.804 17.8,17.804c9.829,-0 17.8,-7.971 17.8,-17.804l-0,-218.279c-0,-9.838 -7.971,-17.805 -17.8,-17.805Z" style="fill:url(#_Linear4);fill-rule:nonzero;stroke:url(#_Linear5);stroke-width:16.96px;"/><path d="M203.577,1732.29c-9.829,0 -17.8,7.967 -17.8,17.8l-0,58.859c-0,9.833 7.971,17.804 17.8,17.804c9.829,-0 17.8,-7.971 17.8,-17.804l-0,-58.859c-0,-9.829 -7.971,-17.8 -17.8,-17.8Z" style="fill:url(#_Linear6);fill-rule:nonzero;stroke:url(#_Linear7);stroke-width:16.96px;"/><path d="M1529.81,1372.5c-9.833,0 -17.8,7.967 -17.8,17.805l0,218.279c0,9.833 7.967,17.804 17.8,17.804c9.833,-0 17.8,-7.971 17.8,-17.804l0,-218.279c0,-9.838 -7.971,-17.805 -17.8,-17.805Z" style="fill:url(#_Linear8);fill-rule:nonzero;stroke:url(#_Linear9);stroke-width:16.96px;"/></g><g><path d="M1485.48,837.681l-570.363,-573.753c-18.262,-18.364 -49.611,-16.895 -69.885,3.258c-9.486,9.432 -15.22,21.74 -16.151,34.659c-0.964,13.431 3.584,26.264 12.48,35.21l17.57,17.677l-479.831,891.87c-6.074,-2.297 -12.738,-3.328 -19.549,-2.93c-12.976,0.753 -25.413,6.441 -35.027,15.998c-20.192,20.076 -21.714,51.41 -3.393,69.842l95.168,95.734c18.257,18.367 49.543,16.973 69.74,-3.104c9.612,-9.554 15.39,-21.917 16.272,-34.808c0.472,-6.915 -0.472,-13.557 -2.717,-19.609l52.546,-27.894c8.387,14.427 18.458,27.582 30.04,39.234c40.877,41.113 97.377,61.626 159.08,57.757c15.935,-0.987 31.721,-3.571 47.169,-7.661c43.745,-11.583 84.77,-35.247 118.692,-68.969c45.936,-45.668 73.611,-104.511 77.938,-165.781c1.784,-27.94 -1.261,-54.576 -9.064,-79.356l418.282,-221.802l17.445,17.55c18.327,18.43 49.733,17.031 70.014,-3.127l0.003,-0.001c9.558,-9.503 15.307,-21.853 16.189,-34.777c0.922,-13.577 -3.568,-26.087 -12.648,-35.217Zm-531.988,259.088c-5.979,3.171 -8.652,10.303 -6.237,16.62c9.286,24.279 13.08,50.967 11.272,79.226c-3.864,54.716 -28.759,107.481 -70.096,148.579c-41.288,41.04 -94.073,65.506 -148.641,68.889c-53.898,3.379 -103.055,-14.343 -138.414,-49.905c-12.711,-12.788 -23.323,-27.715 -31.535,-44.358c-1.603,-3.248 -4.452,-5.709 -7.898,-6.822c-2.464,-0.795 -5.081,-0.852 -7.544,-0.2c-0.982,0.26 -1.939,0.632 -2.852,1.118l-67.912,36.054l-82.646,-83.142l477.882,-888.242l495.865,498.808l-421.244,223.375Zm-262.065,-89.605c-97.105,25.711 -155.19,125.632 -129.478,222.737c25.711,97.105 125.632,155.19 222.737,129.478c97.105,-25.711 155.189,-125.632 129.478,-222.737c-25.711,-97.105 -125.632,-155.189 -222.737,-129.478Zm86.402,326.317c-82.825,21.93 -168.052,-27.612 -189.982,-110.437c-21.93,-82.825 27.612,-168.052 110.437,-189.982c82.825,-21.93 168.052,27.612 189.982,110.437c21.93,82.825 -27.61,168.051 -110.437,189.982Zm-302.048,52.029c-0.439,6.402 -3.432,12.662 -8.432,17.633c-9.56,9.499 -24.144,10.969 -31.854,3.216l-95.167,-95.734c-7.777,-7.821 -6.273,-22.456 3.281,-31.955c4.974,-4.945 11.258,-7.881 17.703,-8.252c5.365,-0.315 10.18,1.21 13.681,4.307c0.21,0.21 0.424,0.411 0.651,0.606c0.031,0.034 0.063,0.061 0.094,0.094l95.166,95.738l0.676,0.724c3.079,3.505 4.565,8.3 4.201,13.623Zm262.223,-216.084l-6.757,1.789c-17.414,4.611 -35.333,-5.804 -39.944,-23.215c-4.61,-17.412 5.809,-35.327 23.223,-39.938l44.527,-11.79c7.15,-1.893 11.414,-9.224 9.52,-16.377c-1.894,-7.153 -9.227,-11.414 -16.378,-9.521l-24.818,6.572l-5.019,-18.958c-1.894,-7.153 -9.228,-11.414 -16.378,-9.52c-7.151,1.893 -11.414,9.224 -9.521,16.377l5.11,19.297c-27.974,10.721 -44.001,41.116 -36.163,70.717c8.391,31.692 41.005,50.649 72.699,42.257l6.757,-1.789c17.417,-4.612 35.335,5.806 39.945,23.22c4.608,17.401 -5.791,35.306 -23.187,39.934c-0.01,0.002 -0.021,0.003 -0.034,0.006c-0.018,0.005 -0.033,0.014 -0.048,0.018l-44.478,11.777c-7.15,1.893 -11.414,9.225 -9.52,16.378c1.894,7.153 9.227,11.413 16.378,9.52l31.58,-8.362l5.018,18.953c1.894,7.153 9.227,11.413 16.378,9.52c7.15,-1.893 11.414,-9.225 9.52,-16.378l-5.412,-20.441c23.916,-12.637 36.917,-40.54 29.704,-67.78c-8.393,-31.699 -41.005,-50.659 -72.702,-42.266Zm733.391,-298.348c-0.437,6.431 -3.402,12.681 -8.344,17.598c-9.646,9.58 -24.355,11.061 -32.129,3.242l-570.363,-573.753c-3.482,-3.501 -5.172,-8.616 -4.755,-14.402c0.457,-6.373 3.486,-12.779 8.317,-17.581c3.765,-3.743 8.295,-6.259 12.877,-7.472c7.147,-1.892 14.422,-0.618 19.12,4.105l570.361,573.756c3.564,3.582 5.308,8.735 4.916,14.507Z" style="fill:url(#_Linear10);fill-rule:nonzero;"/><clipPath id="_clip11"><path d="M1485.48,837.681l-570.363,-573.753c-18.262,-18.364 -49.611,-16.895 -69.885,3.258c-9.486,9.432 -15.22,21.74 -16.151,34.659c-0.964,13.431 3.584,26.264 12.48,35.21l17.57,17.677l-479.831,891.87c-6.074,-2.297 -12.738,-3.328 -19.549,-2.93c-12.976,0.753 -25.413,6.441 -35.027,15.998c-20.192,20.076 -21.714,51.41 -3.393,69.842l95.168,95.734c18.257,18.367 49.543,16.973 69.74,-3.104c9.612,-9.554 15.39,-21.917 16.272,-34.808c0.472,-6.915 -0.472,-13.557 -2.717,-19.609l52.546,-27.894c8.387,14.427 18.458,27.582 30.04,39.234c40.877,41.113 97.377,61.626 159.08,57.757c15.935,-0.987 31.721,-3.571 47.169,-7.661c43.745,-11.583 84.77,-35.247 118.692,-68.969c45.936,-45.668 73.611,-104.511 77.938,-165.781c1.784,-27.94 -1.261,-54.576 -9.064,-79.356l418.282,-221.802l17.445,17.55c18.327,18.43 49.733,17.031 70.014,-3.127l0.003,-0.001c9.558,-9.503 15.307,-21.853 16.189,-34.777c0.922,-13.577 -3.568,-26.087 -12.648,-35.217Zm-531.988,259.088c-5.979,3.171 -8.652,10.303 -6.237,16.62c9.286,24.279 13.08,50.967 11.272,79.226c-3.864,54.716 -28.759,107.481 -70.096,148.579c-41.288,41.04 -94.073,65.506 -148.641,68.889c-53.898,3.379 -103.055,-14.343 -138.414,-49.905c-12.711,-12.788 -23.323,-27.715 -31.535,-44.358c-1.603,-3.248 -4.452,-5.709 -7.898,-6.822c-2.464,-0.795 -5.081,-0.852 -7.544,-0.2c-0.982,0.26 -1.939,0.632 -2.852,1.118l-67.912,36.054l-82.646,-83.142l477.882,-888.242l495.865,498.808l-421.244,223.375Zm-262.065,-89.605c-97.105,25.711 -155.19,125.632 -129.478,222.737c25.711,97.105 125.632,155.19 222.737,129.478c97.105,-25.711 155.189,-125.632 129.478,-222.737c-25.711,-97.105 -125.632,-155.189 -222.737,-129.478Zm86.402,326.317c-82.825,21.93 -168.052,-27.612 -189.982,-110.437c-21.93,-82.825 27.612,-168.052 110.437,-189.982c82.825,-21.93 168.052,27.612 189.982,110.437c21.93,82.825 -27.61,168.051 -110.437,189.982Zm-302.048,52.029c-0.439,6.402 -3.432,12.662 -8.432,17.633c-9.56,9.499 -24.144,10.969 -31.854,3.216l-95.167,-95.734c-7.777,-7.821 -6.273,-22.456 3.281,-31.955c4.974,-4.945 11.258,-7.881 17.703,-8.252c5.365,-0.315 10.18,1.21 13.681,4.307c0.21,0.21 0.424,0.411 0.651,0.606c0.031,0.034 0.063,0.061 0.094,0.094l95.166,95.738l0.676,0.724c3.079,3.505 4.565,8.3 4.201,13.623Zm262.223,-216.084l-6.757,1.789c-17.414,4.611 -35.333,-5.804 -39.944,-23.215c-4.61,-17.412 5.809,-35.327 23.223,-39.938l44.527,-11.79c7.15,-1.893 11.414,-9.224 9.52,-16.377c-1.894,-7.153 -9.227,-11.414 -16.378,-9.521l-24.818,6.572l-5.019,-18.958c-1.894,-7.153 -9.228,-11.414 -16.378,-9.52c-7.151,1.893 -11.414,9.224 -9.521,16.377l5.11,19.297c-27.974,10.721 -44.001,41.116 -36.163,70.717c8.391,31.692 41.005,50.649 72.699,42.257l6.757,-1.789c17.417,-4.612 35.335,5.806 39.945,23.22c4.608,17.401 -5.791,35.306 -23.187,39.934c-0.01,0.002 -0.021,0.003 -0.034,0.006c-0.018,0.005 -0.033,0.014 -0.048,0.018l-44.478,11.777c-7.15,1.893 -11.414,9.225 -9.52,16.378c1.894,7.153 9.227,11.413 16.378,9.52l31.58,-8.362l5.018,18.953c1.894,7.153 9.227,11.413 16.378,9.52c7.15,-1.893 11.414,-9.225 9.52,-16.378l-5.412,-20.441c23.916,-12.637 36.917,-40.54 29.704,-67.78c-8.393,-31.699 -41.005,-50.659 -72.702,-42.266Zm733.391,-298.348c-0.437,6.431 -3.402,12.681 -8.344,17.598c-9.646,9.58 -24.355,11.061 -32.129,3.242l-570.363,-573.753c-3.482,-3.501 -5.172,-8.616 -4.755,-14.402c0.457,-6.373 3.486,-12.779 8.317,-17.581c3.765,-3.743 8.295,-6.259 12.877,-7.472c7.147,-1.892 14.422,-0.618 19.12,4.105l570.361,573.756c3.564,3.582 5.308,8.735 4.916,14.507Z" clip-rule="nonzero"/></clipPath><g clip-path="url(#_clip11)"><path d="M1325.99,-0l-1325.99,351.092l351.092,1325.99l1325.99,-351.092l-351.092,-1325.99Z" style="fill:url(#_Linear12);"/></g><path d="M1485.48,837.681l-570.363,-573.753c-18.262,-18.364 -49.611,-16.895 -69.885,3.258c-9.486,9.432 -15.22,21.74 -16.151,34.659c-0.964,13.431 3.584,26.264 12.48,35.21l17.57,17.677l-479.831,891.87c-6.074,-2.297 -12.738,-3.328 -19.549,-2.93c-12.976,0.753 -25.413,6.441 -35.027,15.998c-20.192,20.076 -21.714,51.41 -3.393,69.842l95.168,95.734c18.257,18.367 49.543,16.973 69.74,-3.104c9.612,-9.554 15.39,-21.917 16.272,-34.808c0.472,-6.915 -0.472,-13.557 -2.717,-19.609l52.546,-27.894c8.387,14.427 18.458,27.582 30.04,39.234c40.877,41.113 97.377,61.626 159.08,57.757c15.935,-0.987 31.721,-3.571 47.169,-7.661c43.745,-11.583 84.77,-35.247 118.692,-68.969c45.936,-45.668 73.611,-104.511 77.938,-165.781c1.784,-27.94 -1.261,-54.576 -9.064,-79.356l418.282,-221.802l17.445,17.55c18.327,18.43 49.733,17.031 70.014,-3.127l0.003,-0.001c9.558,-9.503 15.307,-21.853 16.189,-34.777c0.922,-13.577 -3.568,-26.087 -12.648,-35.217Zm-531.988,259.088c-5.979,3.171 -8.652,10.303 -6.237,16.62c9.286,24.279 13.08,50.967 11.272,79.226c-3.864,54.716 -28.759,107.481 -70.096,148.579c-41.288,41.04 -94.073,65.506 -148.641,68.889c-53.898,3.379 -103.055,-14.343 -138.414,-49.905c-12.711,-12.788 -23.323,-27.715 -31.535,-44.358c-1.603,-3.248 -4.452,-5.709 -7.898,-6.822c-2.464,-0.795 -5.081,-0.852 -7.544,-0.2c-0.982,0.26 -1.939,0.632 -2.852,1.118l-67.912,36.054l-82.646,-83.142l477.882,-888.242l495.865,498.808l-421.244,223.375Zm-262.065,-89.605c-97.105,25.711 -155.19,125.632 -129.478,222.737c25.711,97.105 125.632,155.19 222.737,129.478c97.105,-25.711 155.189,-125.632 129.478,-222.737c-25.711,-97.105 -125.632,-155.189 -222.737,-129.478Zm86.402,326.317c-82.825,21.93 -168.052,-27.612 -189.982,-110.437c-21.93,-82.825 27.612,-168.052 110.437,-189.982c82.825,-21.93 168.052,27.612 189.982,110.437c21.93,82.825 -27.61,168.051 -110.437,189.982Zm-302.048,52.029c-0.439,6.402 -3.432,12.662 -8.432,17.633c-9.56,9.499 -24.144,10.969 -31.854,3.216l-95.167,-95.734c-7.777,-7.821 -6.273,-22.456 3.281,-31.955c4.974,-4.945 11.258,-7.881 17.703,-8.252c5.365,-0.315 10.18,1.21 13.681,4.307c0.21,0.21 0.424,0.411 0.651,0.606c0.031,0.034 0.063,0.061 0.094,0.094l95.166,95.738l0.676,0.724c3.079,3.505 4.565,8.3 4.201,13.623Zm262.223,-216.084l-6.757,1.789c-17.414,4.611 -35.333,-5.804 -39.944,-23.215c-4.61,-17.412 5.809,-35.327 23.223,-39.938l44.527,-11.79c7.15,-1.893 11.414,-9.224 9.52,-16.377c-1.894,-7.153 -9.227,-11.414 -16.378,-9.521l-24.818,6.572l-5.019,-18.958c-1.894,-7.153 -9.228,-11.414 -16.378,-9.52c-7.151,1.893 -11.414,9.224 -9.521,16.377l5.11,19.297c-27.974,10.721 -44.001,41.116 -36.163,70.717c8.391,31.692 41.005,50.649 72.699,42.257l6.757,-1.789c17.417,-4.612 35.335,5.806 39.945,23.22c4.608,17.401 -5.791,35.306 -23.187,39.934c-0.01,0.002 -0.021,0.003 -0.034,0.006c-0.018,0.005 -0.033,0.014 -0.048,0.018l-44.478,11.777c-7.15,1.893 -11.414,9.225 -9.52,16.378c1.894,7.153 9.227,11.413 16.378,9.52l31.58,-8.362l5.018,18.953c1.894,7.153 9.227,11.413 16.378,9.52c7.15,-1.893 11.414,-9.225 9.52,-16.378l-5.412,-20.441c23.916,-12.637 36.917,-40.54 29.704,-67.78c-8.393,-31.699 -41.005,-50.659 -72.702,-42.266Zm733.391,-298.348c-0.437,6.431 -3.402,12.681 -8.344,17.598c-9.646,9.58 -24.355,11.061 -32.129,3.242l-570.363,-573.753c-3.482,-3.501 -5.172,-8.616 -4.755,-14.402c0.457,-6.373 3.486,-12.779 8.317,-17.581c3.765,-3.743 8.295,-6.259 12.877,-7.472c7.147,-1.892 14.422,-0.618 19.12,4.105l570.361,573.756c3.564,3.582 5.308,8.735 4.916,14.507Z" style="fill:none;fill-rule:nonzero;stroke:url(#_Linear13);stroke-width:10.98px;"/></g></g><defs><linearGradient id="_Linear2" x1="0" y1="0" x2="1" y2="0" gradientUnits="userSpaceOnUse" gradientTransform="matrix(1575.82,0,0,1008.22,78.7811,1499.43)"><stop offset="0" style="stop-color:#6abd45;stop-opacity:1"/><stop offset="0.5" style="stop-color:#70c383;stop-opacity:1"/><stop offset="1" style="stop-color:#72ccd2;stop-opacity:1"/></linearGradient><linearGradient id="_Linear3" x1="0" y1="0" x2="1" y2="0" gradientUnits="userSpaceOnUse" gradientTransform="matrix(1575.82,0,0,1008.22,78.7811,1499.43)"><stop offset="0" style="stop-color:#6abd45;stop-opacity:1"/><stop offset="0.5" style="stop-color:#70c383;stop-opacity:1"/><stop offset="1" style="stop-color:#72ccd2;stop-opacity:1"/></linearGradient><linearGradient id="_Linear4" x1="0" y1="0" x2="1" y2="0" gradientUnits="userSpaceOnUse" gradientTransform="matrix(1361.83,0,0,454.258,185.777,1599.63)"><stop offset="0" style="stop-color:#6abd45;stop-opacity:1"/><stop offset="0.5" style="stop-color:#70c383;stop-opacity:1"/><stop offset="1" style="stop-color:#72ccd2;stop-opacity:1"/></linearGradient><linearGradient id="_Linear5" x1="0" y1="0" x2="1" y2="0" gradientUnits="userSpaceOnUse" gradientTransform="matrix(1361.83,0,0,454.258,185.777,1599.63)"><stop offset="0" style="stop-color:#6abd45;stop-opacity:1"/><stop offset="0.5" style="stop-color:#70c383;stop-opacity:1"/><stop offset="1" style="stop-color:#72ccd2;stop-opacity:1"/></linearGradient><linearGradient id="_Linear6" x1="0" y1="0" x2="1" y2="0" gradientUnits="userSpaceOnUse" gradientTransform="matrix(1361.83,0,0,454.258,185.777,1599.63)"><stop offset="0" style="stop-color:#6abd45;stop-opacity:1"/><stop offset="0.5" style="stop-color:#70c383;stop-opacity:1"/><stop offset="1" style="stop-color:#72ccd2;stop-opacity:1"/></linearGradient><linearGradient id="_Linear7" x1="0" y1="0" x2="1" y2="0" gradientUnits="userSpaceOnUse" gradientTransform="matrix(1361.83,0,0,454.258,185.777,1599.63)"><stop offset="0" style="stop-color:#6abd45;stop-opacity:1"/><stop offset="0.5" style="stop-color:#70c383;stop-opacity:1"/><stop offset="1" style="stop-color:#72ccd2;stop-opacity:1"/></linearGradient><linearGradient id="_Linear8" x1="0" y1="0" x2="1" y2="0" gradientUnits="userSpaceOnUse" gradientTransform="matrix(1361.83,0,0,454.258,185.777,1599.63)"><stop offset="0" style="stop-color:#6abd45;stop-opacity:1"/><stop offset="0.5" style="stop-color:#70c383;stop-opacity:1"/><stop offset="1" style="stop-color:#72ccd2;stop-opacity:1"/></linearGradient><linearGradient id="_Linear9" x1="0" y1="0" x2="1" y2="0" gradientUnits="userSpaceOnUse" gradientTransform="matrix(1361.83,0,0,454.258,185.777,1599.63)"><stop offset="0" style="stop-color:#6abd45;stop-opacity:1"/><stop offset="0.5" style="stop-color:#70c383;stop-opacity:1"/><stop offset="1" style="stop-color:#72ccd2;stop-opacity:1"/></linearGradient><linearGradient id="_Linear10" x1="0" y1="0" x2="1" y2="0" gradientUnits="userSpaceOnUse" gradientTransform="matrix(276.287,-475.287,475.287,276.287,695.433,1261.52)"><stop offset="0" style="stop-color:#0dff00;stop-opacity:1"/><stop offset="1" style="stop-color:#00fff2;stop-opacity:1"/></linearGradient><linearGradient id="_Linear12" x1="0" y1="0" x2="1" y2="0" gradientUnits="userSpaceOnUse" gradientTransform="matrix(1325.99,-351.092,351.092,1325.99,175.546,1014.09)"><stop offset="0" style="stop-color:#6abd45;stop-opacity:1"/><stop offset="0.5" style="stop-color:#70c383;stop-opacity:1"/><stop offset="1" style="stop-color:#72ccd2;stop-opacity:1"/></linearGradient><linearGradient id="_Linear13" x1="0" y1="0" x2="1" y2="0" gradientUnits="userSpaceOnUse" gradientTransform="matrix(1220.83,-323.249,285.732,1079.14,228.111,1000.18)"><stop offset="0" style="stop-color:#6bbe4e;stop-opacity:1"/><stop offset="0.5" style="stop-color:#6ec173;stop-opacity:1"/><stop offset="1" style="stop-color:#71c6a1;stop-opacity:1"/></linearGradient></defs></svg>